<?xml version="1.0" standalone="no"?>
<svg class="" aria-hidden="true" viewBox="0 0 350 155" xmlns="http://www.w3.org/2000/svg" version="1.1">
<title fill="#ffffff" class="sr-only" font-size="0" x="50%" y="50%">Parsons Xtreme Golf</title>

<text fill="#ffffff" class="sr-only" font-size="0" x="50%" y="50%">Parsons Xtreme Golf</text>
<g fill="#ffffff" fill-rule="nonzero"><path d="M237.4.8l-43.6 67.3 43.6 67.3H200l-25-38.5-25 38.5h-37.3l43.6-67.3L112.7.8H150l25 38.5L200 .8h37.4"></path><path d="M122.8 35.3L144 68.1l-43.6 67.3H81v19.2H52.1V69.9H81v39.9L107.4 69l-5.5-8.5h-63L22.7 35.3zM100.5.8L116.8 26h-100L.5.8zm227 34.5l-16.2 25.2h-63l-5.5 8.5 26.4 40.7V69.9H298v84.7h-28.9v-19.2h-19.4l-43.6-67.3 21.2-32.8h100.2zM349.6.8L333.4 26h-100L249.7.8zM305 147.6c0-4.2 3.3-6.9 7.1-6.9 3.7 0 7.1 2.7 7.1 6.9s-3.3 6.9-7.1 6.9c-3.7 0-7.1-2.7-7.1-6.9zm7.1-5.4c-2.9 0-5.3 2.3-5.3 5.5s2.3 5.5 5.3 5.5c2.9 0 5.3-2.3 5.3-5.5 0-3.3-2.4-5.5-5.3-5.5zm-1.2 9.3h-1.5v-7.7h2.9c1.9 0 3 .6 3 2.3 0 1.4-.9 2-1.9 2.1l1.9 3.4h-1.7l-1.7-3.3h-1v3.2zm0-4.5h1.3c1.1 0 1.5-.4 1.5-1.1 0-.7-.5-1-1.6-1h-1.2v2.1z"></path></g></svg>